<svg width="21" height="21" viewBox="0 0 21 21" fill="none" xmlns="http://www.w3.org/2000/svg">
<path d="M13.328 10.5L20.699 3.129C21.0877 2.73782 21.0877 2.10618 20.699 1.715L19.285 0.300004C18.8938 -0.0887302 18.2622 -0.0887302 17.871 0.300004L10.5 7.672L3.129 0.301004C2.73782 -0.0877302 2.10618 -0.0877302 1.715 0.301004L0.300996 1.715C-0.0877384 2.10618 -0.0877384 2.73782 0.300996 3.129L7.672 10.5L0.300996 17.871C-0.0877384 18.2622 -0.0877384 18.8938 0.300996 19.285L1.716 20.699C2.10718 21.0877 2.73882 21.0877 3.13 20.699L10.501 13.328L17.872 20.699C18.2632 21.0877 18.8948 21.0877 19.286 20.699L20.7 19.285C21.0887 18.8938 21.0887 18.2622 20.7 17.871L13.328 10.5Z" fill="#FB565A"/>
</svg>
